<svg xmlns="http://www.w3.org/2000/svg" viewBox="0 0 71.44 81.72"><title>wemol copilot</title><g id="图层_2" data-name="图层 2"><g id="TEXTS"><path d="M70.19,19.52,37,.34a2.5,2.5,0,0,0-2.5,0L1.25,19.52A2.5,2.5,0,0,0,0,21.68V60a2.5,2.5,0,0,0,1.25,2.17L34.47,81.39a2.5,2.5,0,0,0,2.5,0L70.19,62.21A2.5,2.5,0,0,0,71.44,60V21.68A2.5,2.5,0,0,0,70.19,19.52ZM17.32,30.69a2.23,2.23,0,1,1,2.23,2.23A2.23,2.23,0,0,1,17.32,30.69ZM66.44,58.6l-8.81,5.09V43.84a6.65,6.65,0,1,0-5,0V66.57L38.22,74.89V57L46,50.86V27.71a6.23,6.23,0,1,0-5,0V48.44l-7.79,6.14V74.89L22,68.41v-32a6.24,6.24,0,1,0-5-.05V65.53L5,58.6V23.13L35.72,5.39,66.44,23.13ZM41.28,22a2.23,2.23,0,1,1,2.23,2.23A2.23,2.23,0,0,1,41.28,22Z"/></g></g></svg>